HIERARCHY
ROOT Hips
{
	OFFSET -21.947001 39.810204 44.525997
	CHANNELS 6 Xposition Yposition Zposition Zrotation Xrotation Yrotation
	JOINT Chest
	{
		OFFSET -0.201599 0.334099 6.453201
		CHANNELS 6 Xposition Yposition Zposition Zrotation Xrotation Yrotation
		JOINT Chest2
		{
			OFFSET 0.000000 0.000000 3.568001
			CHANNELS 6 Xposition Yposition Zposition Zrotation Xrotation Yrotation
			JOINT Neck
			{
				OFFSET 0.000000 0.000000 8.296402
				CHANNELS 6 Xposition Yposition Zposition Zrotation Xrotation Yrotation
				JOINT Head
				{
					OFFSET 0.000000 0.000000 2.173901
					CHANNELS 6 Xposition Yposition Zposition Zrotation Xrotation Yrotation
					End Site
					{
						OFFSET 0.000000 0.000000 7.891998
					}
				}
			}
			JOINT LeftCollar
			{
				OFFSET 1.927601 0.221401 6.049000
				CHANNELS 6 Xposition Yposition Zposition Zrotation Xrotation Yrotation
				JOINT LeftShoulder
				{
					OFFSET 4.959700 0.000000 0.000000
					CHANNELS 6 Xposition Yposition Zposition Zrotation Xrotation Yrotation
					JOINT LeftElbow
					{
						OFFSET 0.000000 0.000000 -8.654202
						CHANNELS 6 Xposition Yposition Zposition Zrotation Xrotation Yrotation
						JOINT LeftWrist
						{
							OFFSET 0.000000 0.000000 -13.864101
							CHANNELS 6 Xposition Yposition Zposition Zrotation Xrotation Yrotation
							End Site
							{
								OFFSET 0.000000 0.000000 -2.173901
							}
						}
					}
				}
			}
			JOINT RightCollar
			{
				OFFSET -3.155701 -0.764999 6.687801
				CHANNELS 6 Xposition Yposition Zposition Zrotation Xrotation Yrotation
				JOINT RightShoulder
				{
					OFFSET -3.592899 0.000000 0.000000
					CHANNELS 6 Xposition Yposition Zposition Zrotation Xrotation Yrotation
					JOINT RightElbow
					{
						OFFSET 0.000000 0.000000 -10.352398
						CHANNELS 6 Xposition Yposition Zposition Zrotation Xrotation Yrotation
						JOINT RightWrist
						{
							OFFSET 0.000000 0.000000 -12.750301
							CHANNELS 6 Xposition Yposition Zposition Zrotation Xrotation Yrotation
							End Site
							{
								OFFSET 0.000000 0.000000 -2.173901
							}
						}
					}
				}
			}
		}
	}
	JOINT LeftHip
	{
		OFFSET 2.460600 -0.518101 -2.735500
		CHANNELS 6 Xposition Yposition Zposition Zrotation Xrotation Yrotation
		JOINT LeftKnee
		{
			OFFSET 0.000000 -0.000004 -17.005899
			CHANNELS 6 Xposition Yposition Zposition Zrotation Xrotation Yrotation
			JOINT LeftAnkle
			{
				OFFSET 0.000000 0.000000 -19.194401
				CHANNELS 6 Xposition Yposition Zposition Zrotation Xrotation Yrotation
				End Site
				{
					OFFSET 0.000000 -8.134600 0.000000
				}
			}
		}
	}
	JOINT RightHip
	{
		OFFSET -3.115499 -0.679600 -2.320301
		CHANNELS 6 Xposition Yposition Zposition Zrotation Xrotation Yrotation
		JOINT RightKnee
		{
			OFFSET 0.000000 -0.000004 -17.680401
			CHANNELS 6 Xposition Yposition Zposition Zrotation Xrotation Yrotation
			JOINT RightAnkle
			{
				OFFSET 0.000000 0.000000 -16.993797
				CHANNELS 6 Xposition Yposition Zposition Zrotation Xrotation Yrotation
				End Site
				{
					OFFSET 0.000000 -8.842300 0.000000
				}
			}
		}
	}
}
MOTION
Frames: 6
Frame Time: 0.041667
-30.465796 24.770206 46.259895 2557.970758 4.083985 -7.142374 -0.201602 0.334098 6.453207 -5.663712 12.027855 11.396596 0.000002 0.000005 3.567992 0.008398 -7.956060 -1.035565 -0.000002 -0.000003 8.296406 198.286990 -182.768772 174.844892 0.000003 0.000003 2.173908 -2.097155 -5.812644 4.208131 1.927601 0.221399 6.049007 -14.524816 4.255263 -9.615233 4.959701 0.000003 0.000017 180.461972 200.271050 14.731668 0.000002 -0.000004 -8.654205 53.847220 -13.467662 9.524714 0.000007 -0.000002 -13.864115 4213.702597 -153.915895 205.200808 -3.155708 -0.765003 6.687807 42.141939 14.485064 13.630066 -3.592898 0.000003 0.000001 -188.838871 197.772198 344.748990 -0.000002 -0.000004 -10.352403 -399.111312 -8.445226 -358.927370 0.000008 -0.000006 -12.750291 -24.455375 202.754152 -145.476431 2.460596 -0.518099 -2.735501 -230.427032 -3.827404 106.064409 -0.000011 0.000000 -17.005898 22.344680 203.570851 -77.789803 -0.000002 -0.000001 -19.194405 609.613071 159.217461 241.022213 -3.115497 -0.679591 -2.320296 -362.392407 -10.058301 1.548592 -0.000005 -0.000003 -17.680401 -493.074963 160.054213 -194.789263 0.000003 0.000005 -16.993797 1034.959113 25.217670 -371.978714
-30.462296 24.766706 46.253296 2558.062119 4.073819 -7.186161 -0.201603 0.334102 6.453203 -5.671872 12.059239 11.438722 0.000007 0.000002 3.567997 -0.026168 -7.951138 -1.038275 -0.000001 -0.000001 8.296394 198.170808 -182.744375 174.948930 -0.000006 -0.000001 2.173898 -2.050432 -5.816715 4.138129 1.927601 0.221404 6.049000 -14.548885 4.304640 -9.618604 4.959703 0.000003 0.000000 180.588726 200.304341 14.796580 0.000001 -0.000002 -8.654200 53.945483 -13.415582 9.509555 0.000006 0.000003 -13.864104 4213.690794 -153.915963 205.295788 -3.155704 -0.765002 6.687800 42.495354 14.818237 13.629046 -3.592897 -0.000005 0.000001 -189.238041 197.999425 344.655143 -0.000003 0.000000 -10.352394 -399.080085 -8.478847 -358.913846 0.000006 -0.000000 -12.750300 -24.334970 202.744084 -145.496908 2.460596 -0.518101 -2.735501 -230.475882 -3.789473 106.041132 0.000000 -0.000001 -17.005899 22.325851 203.625684 -77.891846 -0.000007 0.000000 -19.194399 609.546354 159.580144 241.342330 -3.115498 -0.679587 -2.320302 -362.418580 -10.071958 1.536507 -0.000003 0.000004 -17.680405 -492.846616 160.035745 -194.788375 0.000012 0.000003 -16.993795 1034.756611 25.189418 -372.102805
-30.458599 24.762608 46.248596 2558.150201 4.066241 -7.231928 -0.201597 0.334100 6.453202 -5.678988 12.082683 11.487289 0.000002 0.000007 3.567995 -0.055509 -7.946806 -1.040460 -0.000004 0.000000 8.296402 198.065992 -182.723133 175.035687 -0.000002 -0.000001 2.173897 -1.999699 -5.828989 4.064512 1.927600 0.221399 6.049000 -14.588080 4.368536 -9.620706 4.959704 -0.000001 0.000013 180.730603 200.362930 14.857627 0.000003 -0.000001 -8.654191 54.068782 -13.372822 9.516080 -0.000000 0.000003 -13.864108 4213.655823 -153.911906 205.417625 -3.155710 -0.765005 6.687812 42.783612 15.096892 13.627839 -3.592894 0.000005 0.000001 -189.566587 198.195110 344.564821 -0.000003 -0.000002 -10.352406 -399.036672 -8.522427 -358.896279 0.000004 0.000001 -12.750300 -24.232844 202.736653 -145.515541 2.460601 -0.518105 -2.735501 -230.520742 -3.749218 106.021099 0.000000 -0.000007 -17.005896 22.300535 203.715146 -77.912828 -0.000005 -0.000003 -19.194399 609.554113 160.092039 241.798751 -3.115494 -0.679589 -2.320298 -362.433470 -10.071604 1.545469 -0.000004 0.000004 -17.680403 -492.737715 160.023983 -194.771396 0.000004 0.000005 -16.993795 1034.653557 25.155100 -372.191515
-30.454700 24.758001 46.246098 2558.230415 4.059729 -7.277215 -0.201599 0.334107 6.453203 -5.686550 12.100517 11.541294 0.000000 0.000003 3.567996 -0.077334 -7.943407 -1.041897 -0.000000 0.000003 8.296400 197.985983 -182.707150 175.095793 0.000002 -0.000001 2.173899 -1.952375 -5.849841 3.994818 1.927598 0.221402 6.049003 -14.639307 4.441876 -9.625395 4.959701 -0.000000 0.000008 180.864297 200.445534 14.907311 -0.000007 0.000000 -8.654197 54.184461 -13.343014 9.541651 0.000001 -0.000002 -13.864105 4213.603368 -153.911210 205.553901 -3.155704 -0.764998 6.687800 43.003284 15.314913 13.624309 -3.592892 0.000009 0.000009 -189.820997 198.354923 344.484880 -0.000002 -0.000001 -10.352403 -398.982686 -8.568719 -358.877455 0.000000 -0.000003 -12.750296 -24.152681 202.733975 -145.532862 2.460599 -0.518101 -2.735497 -230.560521 -3.710207 106.004270 0.000002 -0.000002 -17.005901 22.268505 203.823541 -77.864218 -0.000005 0.000002 -19.194397 609.625966 160.714816 242.356941 -3.115497 -0.679587 -2.320295 -362.438606 -10.057813 1.571565 -0.000003 0.000006 -17.680395 -492.754326 160.013492 -194.738542 0.000004 -0.000001 -16.993793 1034.652355 25.116641 -372.239327
-30.450100 24.752804 46.245892 2558.299482 4.051666 -7.319175 -0.201599 0.334103 6.453204 -5.696988 12.115645 11.599111 0.000003 0.000004 3.567996 -0.090463 -7.941469 -1.042524 0.000002 0.000003 8.296394 197.942680 -182.697588 175.122171 -0.000003 -0.000005 2.173898 -1.914940 -5.878458 3.935025 1.927600 0.221406 6.048996 -16.079220 5.120323 -9.415500 4.959703 0.000003 0.000007 182.390585 200.915588 14.839532 -0.000003 0.000002 -8.654207 54.260904 -13.327699 9.580496 -0.000004 0.000000 -13.864107 4213.545229 -153.920663 205.691229 -3.155703 -0.765001 6.687800 43.160905 15.475586 13.613439 -3.592899 0.000000 0.000005 -190.007325 198.480748 344.422070 -0.000002 0.000000 -10.352397 -398.921406 -8.611140 -358.860079 0.000004 0.000000 -12.750288 -24.097314 202.735205 -145.550307 2.460598 -0.518100 -2.735503 -230.595164 -3.676638 105.989605 -0.000000 -0.000006 -17.005898 22.230816 203.934012 -77.769504 -0.000007 0.000000 -19.194405 609.744156 161.388272 242.957069 -3.115498 -0.679591 -2.320303 -362.434945 -10.030476 1.609706 -0.000005 0.000000 -17.680399 -492.887269 160.000747 -194.691400 0.000007 0.000002 -16.993795 1034.743606 25.075931 -372.247413
-30.444702 24.747206 46.247993 2558.355435 4.039657 -7.355399 -0.201603 0.334096 6.453197 -5.713418 12.130468 11.658513 0.000002 0.000001 3.568000 -0.094315 -7.941200 -1.042463 -0.000000 -0.000004 8.296392 197.944073 -182.694610 175.110860 -0.000004 0.000002 2.173906 -1.891188 -5.913117 3.889402 1.927597 0.221400 6.048998 -16.151234 5.200092 -9.427794 4.959701 0.000003 0.000010 182.462589 201.030759 14.848027 -0.000000 -0.000006 -8.654208 54.281354 -13.324946 9.627367 -0.000004 0.000001 -13.864107 4213.490150 -153.943270 205.818065 -3.155708 -0.765004 6.687807 43.266390 15.586323 13.588880 -3.592895 0.000003 0.000000 -190.133356 198.577218 344.383547 -0.000001 0.000003 -10.352394 -398.862093 -8.645102 -358.847429 0.000003 0.000002 -12.750297 -24.062688 202.737896 -145.569117 2.460596 -0.518100 -2.735502 -230.624507 -3.652278 105.975999 -0.000003 0.000001 -17.005896 22.189879 204.032231 -77.658766 -0.000005 -0.000001 -19.194401 609.887590 162.043192 243.532526 -3.115500 -0.679596 -2.320306 -362.423170 -9.989647 1.654722 -0.000007 0.000007 -17.680399 -493.112447 159.984614 -194.633153 0.000007 0.000002 -16.993797 1034.905564 25.035562 -372.221404
